<svg id="visual" viewBox="0 0 900 30" width="900" height="30" xmlns="http://www.w3.org/2000/svg" xmlns:xlink="http://www.w3.org/1999/xlink" version="1.1"><path d="M0 23L8.8 22.8C17.7 22.7 35.3 22.3 53 19.5C70.7 16.7 88.3 11.3 106 11.7C123.7 12 141.3 18 159 20.7C176.7 23.3 194.3 22.7 212 20.7C229.7 18.7 247.3 15.3 265 12.7C282.7 10 300.3 8 318 9.5C335.7 11 353.3 16 371 19C388.7 22 406.3 23 423.8 22.2C441.3 21.3 458.7 18.7 476.2 16.7C493.7 14.7 511.3 13.3 529 13.8C546.7 14.3 564.3 16.7 582 16C599.7 15.3 617.3 11.7 635 12.5C652.7 13.3 670.3 18.7 688 18.3C705.7 18 723.3 12 741 9.3C758.7 6.7 776.3 7.3 794 10C811.7 12.7 829.3 17.3 847 17.3C864.7 17.3 882.3 12.7 891.2 10.3L900 8L900 31L891.2 31C882.3 31 864.7 31 847 31C829.3 31 811.7 31 794 31C776.3 31 758.7 31 741 31C723.3 31 705.7 31 688 31C670.3 31 652.7 31 635 31C617.3 31 599.7 31 582 31C564.3 31 546.7 31 529 31C511.3 31 493.7 31 476.2 31C458.7 31 441.3 31 423.8 31C406.3 31 388.7 31 371 31C353.3 31 335.7 31 318 31C300.3 31 282.7 31 265 31C247.3 31 229.7 31 212 31C194.3 31 176.7 31 159 31C141.3 31 123.7 31 106 31C88.3 31 70.7 31 53 31C35.3 31 17.7 31 8.8 31L0 31Z" fill="#594430" stroke-linecap="round" stroke-linejoin="miter"></path></svg>